<svg id="read" xmlns="http://www.w3.org/2000/svg" width="70.333" height="35.235" viewBox="0 0 70.333 35.235">
  <path id="Path_129" data-name="Path 129" d="M48.336,116a3.525,3.525,0,0,0-4.973-.039L17.368,141.65l-11.3-11.7a3.525,3.525,0,1,0-5.087,4.88l.018.019L14.778,149.13a3.525,3.525,0,0,0,2.5,1.057h.039a3.524,3.524,0,0,0,2.467-1.019l28.517-28.2A3.525,3.525,0,0,0,48.336,116Z" transform="translate(-0.001 -114.952)" fill="#343434"/>
  <path id="Path_130" data-name="Path 130" d="M210.931,149.986a3.525,3.525,0,0,0,2.5,1.057h.039a3.524,3.524,0,0,0,2.467-1.019l28.518-28.2a3.525,3.525,0,0,0-4.934-5.012l-25.984,25.691-.927-.962a3.525,3.525,0,0,0-5.087,4.88l.018.019Z" transform="translate(-175.006 -115.808)" fill="#343434"/>
</svg>
